<svg width="64" height="64" viewBox="0 0 64 64" fill="none" xmlns="http://www.w3.org/2000/svg">
<rect width="64" height="64" rx="8" fill="#FFF2F6"/>
<path d="M34.779 38.6666H29.2223V34.7783H25.334V29.2216H29.2223V25.3333H34.779V29.2216H38.6673V34.7783H34.779V38.6666Z" stroke="#ED215E" stroke-width="2" stroke-linecap="round" stroke-linejoin="round"/>
<path d="M20.3335 41.9999L17.2169 20.1882C17.1576 19.7731 17.2576 19.3508 17.4969 19.0064C17.7363 18.6619 18.0971 18.4208 18.5069 18.3316L31.2769 15.4932C31.7533 15.3873 32.2471 15.3873 32.7235 15.4932L45.4935 18.3332C46.3435 18.5216 46.9069 19.3266 46.7835 20.1899L43.6669 41.9999C43.5502 42.8249 42.8335 47.8332 32.0002 47.8332C21.1669 47.8332 20.4502 42.8249 20.3335 41.9999Z" stroke="#ED215E" stroke-width="2" stroke-linecap="round" stroke-linejoin="round"/>
</svg>
