<svg width="36" height="36" viewBox="0 0 36 36" fill="none" xmlns="http://www.w3.org/2000/svg">
<path d="M34.1831 12.5167C36.2665 10.4334 35.3165 8.00004 34.1831 6.81671L29.1831 1.81671C27.0831 -0.266622 24.6665 0.683378 23.4831 1.81671L20.6498 4.66671H16.3331C13.1665 4.66671 11.3331 6.33338 10.3998 8.25004L2.9998 15.65V22.3167L1.81647 23.4834C-0.266866 25.5834 0.683134 28 1.81647 29.1834L6.81647 34.1834C7.71647 35.0834 8.68313 35.4167 9.5998 35.4167C10.7831 35.4167 11.8665 34.8334 12.5165 34.1834L17.0165 29.6667H22.9998C25.8331 29.6667 27.2665 27.9 27.7831 26.1667C29.6665 25.6667 30.6998 24.2334 31.1165 22.8334C33.6998 22.1667 34.6665 19.7167 34.6665 18V13H33.6831L34.1831 12.5167ZM31.3331 18C31.3331 18.75 31.0165 19.6667 29.6665 19.6667H27.9998V21.3334C27.9998 22.0834 27.6831 23 26.3331 23H24.6665V24.6667C24.6665 25.4167 24.3498 26.3334 22.9998 26.3334H15.6498L10.1831 31.8C9.66647 32.2834 9.36647 32 9.18313 31.8167L4.1998 26.85C3.71647 26.3334 3.9998 26.0334 4.18313 25.85L6.33313 23.6834V17.0167L9.66647 13.6834V16.3334C9.66647 18.35 10.9998 21.3334 14.6665 21.3334C18.3331 21.3334 19.6665 18.35 19.6665 16.3334H31.3331V18ZM31.8165 10.15L28.9831 13H16.3331V16.3334C16.3331 17.0834 16.0165 18 14.6665 18C13.3165 18 12.9998 17.0834 12.9998 16.3334V11.3334C12.9998 10.5667 13.2831 8.00004 16.3331 8.00004H22.0165L25.8165 4.20004C26.3331 3.71671 26.6331 4.00004 26.8165 4.18338L31.7998 9.15004C32.2831 9.66671 31.9998 9.96671 31.8165 10.15Z" fill="#ED215E"/>
</svg>
