<svg width="64" height="64" viewBox="0 0 64 64" fill="none" xmlns="http://www.w3.org/2000/svg">
<rect width="64" height="64" rx="8" fill="#FFF2F6"/>
<path d="M48.1831 26.5167C50.2665 24.4334 49.3165 22 48.1831 20.8167L43.1831 15.8167C41.0831 13.7334 38.6665 14.6834 37.4831 15.8167L34.6498 18.6667H30.3331C27.1665 18.6667 25.3331 20.3334 24.3998 22.25L16.9998 29.65V36.3167L15.8165 37.4834C13.7331 39.5834 14.6831 42 15.8165 43.1834L20.8165 48.1834C21.7165 49.0834 22.6831 49.4167 23.5998 49.4167C24.7831 49.4167 25.8665 48.8334 26.5165 48.1834L31.0165 43.6667H36.9998C39.8331 43.6667 41.2665 41.9 41.7831 40.1667C43.6665 39.6667 44.6998 38.2334 45.1165 36.8334C47.6998 36.1667 48.6665 33.7167 48.6665 32V27H47.6831L48.1831 26.5167ZM45.3331 32C45.3331 32.75 45.0165 33.6667 43.6665 33.6667H41.9998V35.3334C41.9998 36.0834 41.6831 37 40.3331 37H38.6665V38.6667C38.6665 39.4167 38.3498 40.3334 36.9998 40.3334H29.6498L24.1831 45.8C23.6665 46.2834 23.3665 46 23.1831 45.8167L18.1998 40.85C17.7165 40.3334 17.9998 40.0334 18.1831 39.85L20.3331 37.6834V31.0167L23.6665 27.6834V30.3334C23.6665 32.35 24.9998 35.3334 28.6665 35.3334C32.3331 35.3334 33.6665 32.35 33.6665 30.3334H45.3331V32ZM45.8165 24.15L42.9831 27H30.3331V30.3334C30.3331 31.0834 30.0165 32 28.6665 32C27.3165 32 26.9998 31.0834 26.9998 30.3334V25.3334C26.9998 24.5667 27.2831 22 30.3331 22H36.0165L39.8165 18.2C40.3331 17.7167 40.6331 18 40.8165 18.1834L45.7998 23.15C46.2831 23.6667 45.9998 23.9667 45.8165 24.15Z" fill="#ED215E"/>
</svg>
