<svg width="40" height="40" viewBox="0 0 40 40" fill="none" xmlns="http://www.w3.org/2000/svg">
<path d="M22.779 26.6666H17.2223V22.7783H13.334V17.2216H17.2223V13.3333H22.779V17.2216H26.6673V22.7783H22.779V26.6666Z" stroke="#ED215E" stroke-width="2" stroke-linecap="round" stroke-linejoin="round"/>
<path d="M8.33354 29.9999L5.21688 8.18825C5.15758 7.77305 5.25764 7.3508 5.49695 7.00636C5.73626 6.66193 6.09708 6.42085 6.50688 6.33158L19.2769 3.49325C19.7533 3.38734 20.2471 3.38734 20.7235 3.49325L33.4935 6.33325C34.3435 6.52158 34.9069 7.32658 34.7835 8.18991L31.6669 29.9999C31.5502 30.8249 30.8335 35.8332 20.0002 35.8332C9.16688 35.8332 8.45021 30.8249 8.33354 29.9999Z" stroke="#ED215E" stroke-width="2" stroke-linecap="round" stroke-linejoin="round"/>
</svg>
