<svg width="64" height="64" viewBox="0 0 64 64" fill="none" xmlns="http://www.w3.org/2000/svg">
<rect width="64" height="64" rx="8" fill="#FFF2F6"/>
<path d="M21.2853 25.1449C20.8078 21.9999 23.0253 19.1749 26.4128 18.1399C27.0139 17.9562 27.6625 18.0085 28.2264 18.2862C28.7903 18.564 29.2271 19.0463 29.4478 19.6349L30.5353 22.5349C30.7103 23.0015 30.742 23.5097 30.6262 23.9943C30.5104 24.479 30.2524 24.918 29.8853 25.2549L26.6503 28.2174C26.4908 28.3638 26.372 28.5489 26.3054 28.7549C26.2388 28.9608 26.2267 29.1805 26.2703 29.3924L26.3003 29.5224L26.3778 29.8474C26.7801 31.4266 27.3931 32.9444 28.2003 34.3599C29.0796 35.8642 30.1707 37.2341 31.4403 38.4275L31.5403 38.5175C31.7018 38.6608 31.8977 38.7599 32.1088 38.805C32.32 38.8501 32.5393 38.8398 32.7453 38.775L36.9278 37.4574C37.4031 37.3082 37.9122 37.3044 38.3897 37.4465C38.8672 37.5886 39.2914 37.8701 39.6078 38.2549L41.5878 40.6574C42.4128 41.6574 42.3128 43.1274 41.3653 44.0099C38.7728 46.4274 35.2078 46.9224 32.7278 44.9299C29.6878 42.4778 27.1252 39.4872 25.1678 36.1074C23.1945 32.7303 21.8789 29.011 21.2853 25.1449ZM28.8903 29.5574L31.5703 27.0974C32.3049 26.4238 32.8214 25.546 33.0534 24.5766C33.2855 23.6073 33.2226 22.5908 32.8728 21.6574L31.7878 18.7574C31.3437 17.5736 30.465 16.6036 29.3308 16.0448C28.1966 15.4861 26.892 15.3806 25.6828 15.7499C21.4753 17.0374 18.0978 20.8099 18.8128 25.5224C19.3128 28.8124 20.4653 32.9974 23.0078 37.3675C25.1196 41.0117 27.8839 44.2362 31.1628 46.8799C34.8828 49.8674 39.8478 48.8475 43.0728 45.8424C43.9956 44.9832 44.5557 43.8043 44.6389 42.5462C44.722 41.2881 44.3219 40.0456 43.5203 39.0725L41.5403 36.6674C40.9069 35.8987 40.0583 35.3366 39.1033 35.0533C38.1483 34.77 37.1305 34.7784 36.1803 35.0774L32.7078 36.17C31.8112 35.2455 31.0259 34.2194 30.3678 33.1124C29.7321 31.9933 29.2367 30.8002 28.8928 29.5599" fill="#ED215E"/>
</svg>
