<svg width="27" height="34" viewBox="0 0 27 34" fill="none" xmlns="http://www.w3.org/2000/svg">
<path d="M3.28528 10.1449C2.80778 6.99995 5.02528 4.17495 8.41278 3.13995C9.01392 2.95615 9.66252 3.00847 10.2264 3.28625C10.7903 3.56402 11.2271 4.04634 11.4478 4.63495L12.5353 7.53495C12.7103 8.00148 12.742 8.50969 12.6262 8.99434C12.5104 9.47899 12.2524 9.91797 11.8853 10.2549L8.65028 13.2174C8.49082 13.3638 8.372 13.5489 8.3054 13.7549C8.23881 13.9608 8.22671 14.1805 8.27028 14.3924L8.30028 14.5224L8.37778 14.8474C8.7801 16.4266 9.3931 17.9444 10.2003 19.3599C11.0796 20.8642 12.1707 22.2341 13.4403 23.4275L13.5403 23.5175C13.7018 23.6608 13.8977 23.7599 14.1088 23.805C14.32 23.8501 14.5393 23.8398 14.7453 23.775L18.9278 22.4574C19.4031 22.3082 19.9122 22.3044 20.3897 22.4465C20.8672 22.5886 21.2914 22.8701 21.6078 23.2549L23.5878 25.6574C24.4128 26.6574 24.3128 28.1274 23.3653 29.0099C20.7728 31.4274 17.2078 31.9224 14.7278 29.9299C11.6878 27.4778 9.12517 24.4872 7.16778 21.1074C5.19451 17.7303 3.87894 14.011 3.28528 10.1449ZM10.8903 14.5574L13.5703 12.0974C14.3049 11.4238 14.8214 10.546 15.0534 9.57663C15.2855 8.60732 15.2226 7.59075 14.8728 6.65745L13.7878 3.75745C13.3437 2.57363 12.465 1.60359 11.3308 1.04484C10.1966 0.486084 8.89203 0.380631 7.68278 0.749948C3.47528 2.03745 0.097782 5.80995 0.812782 10.5224C1.31278 13.8124 2.46528 17.9974 5.00778 22.3675C7.11956 26.0117 9.88393 29.2362 13.1628 31.8799C16.8828 34.8674 21.8478 33.8475 25.0728 30.8424C25.9956 29.9832 26.5557 28.8043 26.6389 27.5462C26.722 26.2881 26.3219 25.0456 25.5203 24.0725L23.5403 21.6674C22.9069 20.8987 22.0583 20.3366 21.1033 20.0533C20.1483 19.77 19.1305 19.7784 18.1803 20.0774L14.7078 21.17C13.8112 20.2455 13.0259 19.2194 12.3678 18.1124C11.7321 16.9933 11.2367 15.8002 10.8928 14.5599" fill="#ED215E"/>
</svg>
