<svg width="19" height="22" viewBox="0 0 19 22" fill="none" xmlns="http://www.w3.org/2000/svg">
<path d="M17.9879 9.68744L2.23785 0.697756C1.97237 0.54883 1.66785 0.484202 1.36476 0.512459C1.06167 0.540716 0.774346 0.660519 0.540963 0.855955C0.30758 1.05139 0.139181 1.31321 0.0581367 1.60663C-0.0229074 1.90005 -0.0127608 2.21118 0.0872287 2.49869L2.99348 10.9803C2.99311 10.9834 2.99311 10.9865 2.99348 10.9896C2.99295 10.9927 2.99295 10.9959 2.99348 10.999L0.0872287 19.4993C0.00715288 19.7255 -0.0175011 19.9676 0.0153358 20.2052C0.0481728 20.4429 0.137543 20.6692 0.275944 20.8652C0.414346 21.0612 0.597741 21.2211 0.810737 21.3316C1.02373 21.442 1.26011 21.4998 1.50004 21.4999C1.76036 21.4993 2.0161 21.4315 2.24254 21.3031L17.9841 12.2984C18.2163 12.1683 18.4097 11.9788 18.5445 11.7493C18.6793 11.5198 18.7505 11.2586 18.751 10.9924C18.7515 10.7263 18.6812 10.4648 18.5472 10.2348C18.4133 10.0048 18.2205 9.8146 17.9888 9.68369L17.9879 9.68744ZM1.50004 19.9999V19.9915L4.32567 11.7499H9.75004C9.94895 11.7499 10.1397 11.6709 10.2804 11.5303C10.421 11.3896 10.5 11.1989 10.5 10.9999C10.5 10.801 10.421 10.6103 10.2804 10.4696C10.1397 10.329 9.94895 10.2499 9.75004 10.2499H4.33317L1.50567 2.01119L1.50004 1.99994L17.25 10.984L1.50004 19.9999Z" fill="#ED215E"/>
</svg>
