<svg width="20" height="20" viewBox="0 0 20 20" fill="none" xmlns="http://www.w3.org/2000/svg">
<path d="M18.25 6.25H13.75V1.75C13.75 1.35218 13.592 0.970644 13.3107 0.68934C13.0294 0.408035 12.6478 0.25 12.25 0.25H7.75C7.35218 0.25 6.97064 0.408035 6.68934 0.68934C6.40804 0.970644 6.25 1.35218 6.25 1.75V6.25H1.75C1.35218 6.25 0.970644 6.40804 0.68934 6.68934C0.408035 6.97064 0.25 7.35218 0.25 7.75V12.25C0.25 12.6478 0.408035 13.0294 0.68934 13.3107C0.970644 13.592 1.35218 13.75 1.75 13.75H6.25V18.25C6.25 18.6478 6.40804 19.0294 6.68934 19.3107C6.97064 19.592 7.35218 19.75 7.75 19.75H12.25C12.6478 19.75 13.0294 19.592 13.3107 19.3107C13.592 19.0294 13.75 18.6478 13.75 18.25V13.75H18.25C18.6478 13.75 19.0294 13.592 19.3107 13.3107C19.592 13.0294 19.75 12.6478 19.75 12.25V7.75C19.75 7.35218 19.592 6.97064 19.3107 6.68934C19.0294 6.40804 18.6478 6.25 18.25 6.25ZM18.25 12.25H13C12.8011 12.25 12.6103 12.329 12.4697 12.4697C12.329 12.6103 12.25 12.8011 12.25 13V18.25H7.75V13C7.75 12.8011 7.67098 12.6103 7.53033 12.4697C7.38968 12.329 7.19891 12.25 7 12.25H1.75V7.75H7C7.19891 7.75 7.38968 7.67098 7.53033 7.53033C7.67098 7.38968 7.75 7.19891 7.75 7V1.75H12.25V7C12.25 7.19891 12.329 7.38968 12.4697 7.53033C12.6103 7.67098 12.8011 7.75 13 7.75H18.25V12.25Z" fill="#1264B5"/>
</svg>
