<svg width="52" height="38" viewBox="0 0 52 38" fill="none" xmlns="http://www.w3.org/2000/svg">
<path d="M29 34L29 12C29.0033 8.81842 30.2687 5.76809 32.5184 3.51837C34.7681 1.26865 37.8184 0.0033061 41 -9.61651e-07C41.5304 -9.15279e-07 42.0391 0.210712 42.4142 0.585784C42.7893 0.960857 43 1.46957 43 2C43 2.53043 42.7893 3.03914 42.4142 3.41421C42.0391 3.78929 41.5304 4 41 4C38.8783 4 36.8434 4.84286 35.3431 6.34315C33.8429 7.84344 33 9.87827 33 12L33 14L48 14C49.0609 14 50.0783 14.4214 50.8284 15.1716C51.5786 15.9217 52 16.9391 52 18L52 34C52 35.0609 51.5786 36.0783 50.8284 36.8284C50.0783 37.5786 49.0609 38 48 38L33 38C31.9391 38 30.9217 37.5786 30.1716 36.8284C29.4214 36.0783 29 35.0609 29 34ZM4 38L19 38C20.0609 38 21.0783 37.5786 21.8284 36.8284C22.5786 36.0783 23 35.0609 23 34L23 18C23 16.9391 22.5786 15.9217 21.8284 15.1716C21.0783 14.4214 20.0609 14 19 14L4 14L4 12C4 9.87826 4.84286 7.84343 6.34315 6.34314C7.84344 4.84285 9.87827 4 12 4C12.5304 4 13.0391 3.78928 13.4142 3.41421C13.7893 3.03914 14 2.53043 14 2C14 1.46956 13.7893 0.960854 13.4142 0.585782C13.0391 0.210709 12.5304 -3.45054e-06 12 -3.49691e-06C8.81842 0.00330357 5.76809 1.26865 3.51837 3.51837C1.26866 5.76808 0.00330989 8.81841 2.27299e-06 12L3.49691e-07 34C2.56947e-07 35.0609 0.421429 36.0783 1.17157 36.8284C1.92172 37.5786 2.93913 38 4 38Z" fill="#ECEBEB"/>
</svg>
